<svg xmlns="http://www.w3.org/2000/svg" viewBox="0 0 24 24" fill="none">
  <path
    d="M19.14 12.94a7.77 7.77 0 0 0 .05-.94c0-.32-.02-.63-.07-.94l2.03-1.58a.5.5 0 0 0 .12-.64l-1.92-3.32a.5.5 0 0 0-.6-.22l-2.39.96a7.34 7.34 0 0 0-1.63-.94l-.36-2.54a.5.5 0 0 0-.5-.42h-3.84a.5.5 0 0 0-.5.42l-.36 2.54c-.58.22-1.13.53-1.63.94l-2.39-.96a.5.5 0 0 0-.6.22L2.7 8.84a.5.5 0 0 0 .12.64l2.03 1.58c-.04.31-.07.62-.07.94 0 .31.02.62.06.94L2.82 14.5a.5.5 0 0 0-.12.64l1.92 3.32c.13.23.4.32.64.22l2.39-.96c.5.41 1.05.73 1.63.95l.36 2.54c.04.24.25.42.5.42h3.84c.25 0 .46-.18.5-.42l.36-2.54c.58-.22 1.13-.54 1.63-.95l2.39.96c.24.1.51.01.64-.22l1.92-3.32a.5.5 0 0 0-.12-.64l-2.02-1.56ZM12 15.5a3.5 3.5 0 1 1 0-7 3.5 3.5 0 0 1 0 7Z"
    fill="currentColor"
  />
</svg>
